<?xml version="1.0" encoding="UTF-8"?>
<svg id="Layer_1" xmlns="http://www.w3.org/2000/svg" version="1.1" viewBox="0 0 740 740">
  <!-- Generator: Adobe Illustrator 29.5.0, SVG Export Plug-In . SVG Version: 2.1.0 Build 137)  -->
  <defs>
    <style>
      .st0 {
        fill: #fff;
        stroke: #000;
        stroke-miterlimit: 10;
      }
    </style>
  </defs>
  <path class="st0" d="M663,639c-9.2,4.9-84.1,43.2-156,14-41.4-16.8-35.3-37.1-80-53-8.3-3-64.7-22.1-120,2-30,13.1-25.6,24.1-64,44-22.9,11.9-55.9,29-94,23-32.1-5-52.6-24.1-74.1-44-19.8-18.4-53.1-54.9-74.9-116v231h740v-173c-11.6,18.3-35.4,49.9-77,72Z"/>
  <path class="st0" d="M0,0v77c64.1-20,121.1-29.9,166-35,76.4-8.7,135.6-5.5,157-4,64.8,4.5,124.2,16.2,153,25,164.5,50,250.3,280.7,264,319V0H0Z"/>
</svg>